<svg width="92" height="92" viewBox="0 0 92 92" fill="none" xmlns="http://www.w3.org/2000/svg">
<circle cx="46" cy="46" r="46" fill="url(#paint0_linear_176_300)"/>
<path d="M45.5 55.125C50.1254 55.125 53.875 51.2635 53.875 46.5C53.875 41.7365 50.1254 37.875 45.5 37.875C40.8746 37.875 37.125 41.7365 37.125 46.5C37.125 51.2635 40.8746 55.125 45.5 55.125Z" stroke="url(#paint1_linear_176_300)" stroke-width="3.00312" stroke-linecap="round" stroke-linejoin="round"/>
<path d="M66.1587 55.125C65.7871 55.9921 65.6762 56.9541 65.8404 57.8867C66.0046 58.8193 66.4363 59.6799 67.0799 60.3575L67.2474 60.53C67.7665 61.064 68.1784 61.6982 68.4593 62.3962C68.7403 63.0943 68.8849 63.8425 68.8849 64.5981C68.8849 65.3538 68.7403 66.102 68.4593 66.8C68.1784 67.4981 67.7665 68.1322 67.2474 68.6662C66.7289 69.2009 66.1131 69.625 65.4353 69.9143C64.7575 70.2037 64.0309 70.3526 63.2972 70.3526C62.5635 70.3526 61.8369 70.2037 61.1591 69.9143C60.4813 69.625 59.8655 69.2009 59.347 68.6662L59.1795 68.4937C58.5216 67.831 57.6859 67.3863 56.7803 67.2172C55.8747 67.0481 54.9407 67.1623 54.0987 67.545C53.273 67.9094 52.5688 68.5146 52.0728 69.2859C51.5768 70.0572 51.3106 70.9611 51.307 71.8862V72.375C51.307 73.9 50.7188 75.3625 49.6717 76.4409C48.6246 77.5192 47.2045 78.125 45.7237 78.125C44.2429 78.125 42.8227 77.5192 41.7756 76.4409C40.7286 75.3625 40.1403 73.9 40.1403 72.375V72.1162C40.1187 71.1646 39.8196 70.2417 39.2819 69.4675C38.7442 68.6933 37.9928 68.1036 37.1253 67.775C36.2833 67.3923 35.3493 67.2781 34.4437 67.4472C33.5381 67.6163 32.7024 68.061 32.0445 68.7237L31.877 68.8962C31.3585 69.4309 30.7427 69.855 30.0649 70.1443C29.3871 70.4337 28.6605 70.5826 27.9268 70.5826C27.193 70.5826 26.4665 70.4337 25.7887 70.1443C25.1109 69.855 24.4951 69.4309 23.9766 68.8962C23.4575 68.3622 23.0456 67.7281 22.7647 67.03C22.4837 66.332 22.3391 65.5838 22.3391 64.8281C22.3391 64.0725 22.4837 63.3243 22.7647 62.6262C23.0456 61.9282 23.4575 61.294 23.9766 60.76L24.1441 60.5875C24.7877 59.9099 25.2194 59.0493 25.3836 58.1167C25.5478 57.1841 25.4369 56.2221 25.0653 55.355C24.7114 54.5047 24.1239 53.7794 23.3749 53.2686C22.6259 52.7578 21.7482 52.4837 20.8499 52.48H20.3753C18.8945 52.48 17.4744 51.8742 16.4273 50.7959C15.3802 49.7175 14.792 48.255 14.792 46.73C14.792 45.205 15.3802 43.7425 16.4273 42.6641C17.4744 41.5858 18.8945 40.98 20.3753 40.98H20.6266C21.5506 40.9577 22.4468 40.6497 23.1985 40.096C23.9503 39.5422 24.5229 38.7684 24.842 37.875C25.2136 37.0079 25.3245 36.0459 25.1603 35.1133C24.9961 34.1807 24.5643 33.3201 23.9207 32.6425L23.7532 32.47C23.2341 31.936 22.8223 31.3018 22.5413 30.6038C22.2603 29.9057 22.1157 29.1575 22.1157 28.4019C22.1157 27.6462 22.2603 26.898 22.5413 26.2C22.8223 25.5019 23.2341 24.8678 23.7532 24.3337C24.2718 23.7991 24.8876 23.375 25.5654 23.0857C26.2432 22.7963 26.9697 22.6474 27.7035 22.6474C28.4372 22.6474 29.1637 22.7963 29.8415 23.0857C30.5193 23.375 31.1351 23.7991 31.6537 24.3337L31.8212 24.5062C32.4791 25.169 33.3147 25.6137 34.2204 25.7828C35.126 25.9519 36.06 25.8377 36.902 25.455H37.1253C37.951 25.0906 38.6552 24.4854 39.1512 23.7141C39.6472 22.9428 39.9134 22.0389 39.917 21.1137V20.625C39.917 19.1 40.5052 17.6375 41.5523 16.5591C42.5994 15.4808 44.0195 14.875 45.5003 14.875C46.9811 14.875 48.4013 15.4808 49.4483 16.5591C50.4954 17.6375 51.0837 19.1 51.0837 20.625V20.8837C51.0872 21.8089 51.3534 22.7128 51.8494 23.4841C52.3454 24.2554 53.0496 24.8606 53.8753 25.225C54.7173 25.6077 55.6514 25.7219 56.557 25.5528C57.4626 25.3837 58.2982 24.939 58.9562 24.2762L59.1237 24.1037C59.6422 23.5691 60.258 23.145 60.9358 22.8557C61.6136 22.5663 62.3401 22.4174 63.0739 22.4174C63.8076 22.4174 64.5342 22.5663 65.212 22.8557C65.8898 23.145 66.5055 23.5691 67.0241 24.1037C67.5432 24.6378 67.955 25.2719 68.236 25.97C68.517 26.668 68.6616 27.4162 68.6616 28.1719C68.6616 28.9275 68.517 29.6757 68.236 30.3738C67.955 31.0718 67.5432 31.706 67.0241 32.24L66.8566 32.4125C66.213 33.0901 65.7813 33.9507 65.6171 34.8833C65.4529 35.8159 65.5637 36.7779 65.9353 37.645V37.875C66.2892 38.7253 66.8768 39.4505 67.6258 39.9614C68.3748 40.4722 69.2524 40.7463 70.1507 40.75H70.6253C72.1061 40.75 73.5263 41.3558 74.5733 42.4341C75.6204 43.5125 76.2087 44.975 76.2087 46.5C76.2087 48.025 75.6204 49.4875 74.5733 50.5659C73.5263 51.6442 72.1061 52.25 70.6253 52.25H70.3741C69.4758 52.2537 68.5981 52.5278 67.8491 53.0386C67.1001 53.5494 66.5125 54.2747 66.1587 55.125V55.125Z" stroke="url(#paint2_linear_176_300)" stroke-width="3.00312" stroke-linecap="round" stroke-linejoin="round"/>
<defs>
<linearGradient id="paint0_linear_176_300" x1="92" y1="0" x2="0" y2="92" gradientUnits="userSpaceOnUse">
<stop stop-color="#D21B1B"/>
<stop offset="1" stop-color="#6F0707"/>
</linearGradient>
<linearGradient id="paint1_linear_176_300" x1="53.875" y1="37.875" x2="36.6325" y2="54.6178" gradientUnits="userSpaceOnUse">
<stop stop-color="#DADEE5"/>
<stop offset="1" stop-color="#F7F9FC"/>
</linearGradient>
<linearGradient id="paint2_linear_176_300" x1="76.2087" y1="14.875" x2="12.986" y2="76.2651" gradientUnits="userSpaceOnUse">
<stop stop-color="#DADEE5"/>
<stop offset="1" stop-color="#F7F9FC"/>
</linearGradient>
</defs>
</svg>
